PathFileType	4	(x/y/z)	S01_M20_T10.trc
DataRate	CameraRate	NumFrames	NumMarkers	Units	OrigDataRate	OrigDataStartFrame	OrigNumFrames
240	240	4	51	mm	240	158	419
Frame#	Time	Sternum			R.Acromium			L.Acromium			Top.Head			R.ASIS			L.ASIS			R.PSIS			L.PSIS			R.Great.Tro			L.Great.Tro			R.Iliac.Crest			L.Iliac.Crest			V.Sacral			R.Thigh.Upper.Post			R.Thigh.Lower.Ant			R.Thigh.Lower.Post			R.Thigh.Upper.Ant			R.Knee.Lat			R.Knee.Med			R.Shank.Upper.Post			R.Shank.Lower.Ant			R.Shank.Lower.Post			R.Shank.Upper.Ant			R.Ankle.Lat			R.Ankle.Med			R.Heel.Upper			R.Heel.Med			R.Heel.Lat			R.Toe.Lat			R.Toe.Med			R.Toe.Tip			L.Thigh.Upper.Post			L.Thigh.Lower.Ant			L.Thigh.Lower.Post			L.Thigh.Upper.Ant			L.Knee.Lat			L.Knee.Med			L.Shank.Upper.Post			L.Shank.Lower.Ant			L.Shank.Lower.Post			L.Shank.Upper.Ant			L.Ankle.Lat			L.Ankle.Med			L.Heel.Upper			L.Heel.Med			L.Heel.Lat			L.Toe.Lat			L.Toe.Med			L.Toe.Tip			Cervical.Spine			Back			
		X1	Y1	Z1	X2	Y2	Z2	X3	Y3	Z3	X4	Y4	Z4	X5	Y5	Z5	X6	Y6	Z6	X7	Y7	Z7	X8	Y8	Z8	X9	Y9	Z9	X10	Y10	Z10	X11	Y11	Z11	X12	Y12	Z12	X13	Y13	Z13	X14	Y14	Z14	X15	Y15	Z15	X16	Y16	Z16	X17	Y17	Z17	X18	Y18	Z18	X19	Y19	Z19	X20	Y20	Z20	X21	Y21	Z21	X22	Y22	Z22	X23	Y23	Z23	X24	Y24	Z24	X25	Y25	Z25	X26	Y26	Z26	X27	Y27	Z27	X28	Y28	Z28	X29	Y29	Z29	X30	Y30	Z30	X31	Y31	Z31	X32	Y32	Z32	X33	Y33	Z33	X34	Y34	Z34	X35	Y35	Z35	X36	Y36	Z36	X37	Y37	Z37	X38	Y38	Z38	X39	Y39	Z39	X40	Y40	Z40	X41	Y41	Z41	X42	Y42	Z42	X43	Y43	Z43	X44	Y44	Z44	X45	Y45	Z45	X46	Y46	Z46	X47	Y47	Z47	X48	Y48	Z48	X49	Y49	Z49	X50	Y50	Z50	X51	Y51	Z51	

158	0.65417	-351.52	1284.9	277.19	-441.98	1520.1	482.49	-502.41	1563.5	163.94	-430.81	1855.9	337.83	-383.56	1027.7	425.87	-408.23	1029	161.5	-629.92	1072.9	358.72	-640.5	1068.7	256.35	-452.51	978.27	514.29	-519.91	975.44	94.211	-461.46	1124.1	504.15	-525.55	1116.4	103.55	-650.43	1035.1	307.78	-415.88	669.15	478.05	-337.42	612.91	439.58	-400.16	584.75	451.12	-350.43	699.51	466.62	-369.45	527.47	439.99	-378.8	535.14	298.24	-433.01	370.06	459.86	-381.44	285.64	410.03	-442.37	300.56	447.31	-374.81	356.48	429.93	-463.44	103.12	402.96	-433.75	110.11	309.28	-536.37	74.902	344.02	-520.36	45.974	315.08	-525.22	44.633	379.66	-334.5	36.082	437.54	-302.69	40.195	312.56	-239.37	57.701	367.5	-482.92	689.21	103.93	-390.67	636.36	75.218	-452.55	603.78	112.66	-428.56	723.94	71.147	-402.01	538.14	80.87	-340.65	527.4	222.16	-522.55	487.04	81.449	-547.16	379.83	96.913	-579.43	433.73	88.808	-489.25	431.35	85.541	-742.99	301.96	132.23	-703.29	279.88	222.07	-803.03	332.9	193.57	-810.45	307.53	227.35	-824.34	312.8	166.9	-716.82	146.89	97.021	-673.36	122.43	210.2	-634.69	85.61	147.47	-555.04	1596	344.95	-643.99	1286.5	345.21
159	0.65833	-346.42	1285.9	277.43	-436.53	1521.3	482.73	-497.45	1564.4	164.28	-425.25	1856.9	337.79	-378.55	1028.6	426.31	-403.04	1030.3	161.99	-624.82	1073.9	358.74	-635.17	1069.8	256.32	-447.82	978.83	514.48	-514.31	976.85	94.255	-456.36	1125.1	504.43	-520.19	1117.8	103.87	-645.19	1036.1	307.69	-413.43	669.41	478.28	-335.36	612.52	439.95	-398.36	584.88	451.38	-347.71	699.24	466.93	-368.07	527.38	440.28	-377.07	535.1	298.5	-432.23	370.18	460.04	-380.87	285.6	410.24	-441.8	300.68	447.44	-374.04	356.42	430.17	-463.3	103.23	402.98	-433.59	110.21	309.34	-536.27	75.078	344.01	-520.3	46.133	315.07	-525.16	44.799	379.65	-334.45	36.04	437.58	-302.64	40.202	312.59	-239.3	57.552	367.56	-474.55	690.67	103.43	-381.53	638.81	75.434	-443.32	605.56	112.24	-420.32	726	71.07	-391.9	540.26	81.233	-330.88	530.42	222.65	-511.92	487.64	81.542	-534.73	380.09	97.345	-568.04	433.65	88.823	-477.92	432.41	85.865	-730.18	299.87	132.21	-690.34	278.67	222.24	-790.97	329.81	193.26	-798.06	304.31	226.94	-811.85	309.35	166.56	-701.09	145.34	97.328	-657.57	121.82	210.69	-618.02	85.667	148.13	-549.71	1597	345.34	-638.71	1287.5	345.81
160	0.6625	-341.33	1287	277.68	-431.1	1522.4	482.96	-492.49	1565.4	164.61	-419.71	1857.8	337.71	-373.57	1029.4	426.79	-397.83	1031.6	162.5	-619.74	1074.9	358.73	-629.84	1070.8	256.24	-443.18	979.36	514.68	-508.69	978.25	94.283	-451.32	1126	504.73	-514.8	1119.1	104.17	-639.95	1037.1	307.55	-411.01	669.66	478.49	-333.35	612.12	440.31	-396.6	585.02	451.62	-345.02	698.97	467.23	-366.72	527.28	440.56	-375.39	535.06	298.74	-431.46	370.29	460.21	-380.32	285.57	410.44	-441.25	300.81	447.56	-373.3	356.37	430.4	-463.18	103.33	403	-433.43	110.31	309.39	-536.17	75.254	343.99	-520.23	46.292	315.05	-525.1	44.966	379.64	-334.41	36.003	437.62	-302.59	40.208	312.62	-239.23	57.407	367.63	-466.24	692.16	102.88	-372.46	641.27	75.657	-434.19	607.35	111.79	-412.12	728.08	70.989	-381.87	542.38	81.6	-321.25	533.44	223.15	-501.35	488.14	81.607	-522.32	380.26	97.772	-556.67	433.42	88.824	-466.63	433.4	86.193	-717.28	297.58	132.18	-677.29	277.28	222.42	-778.81	326.47	192.96	-785.55	300.84	226.56	-799.25	305.64	166.22	-685.2	143.64	97.646	-641.62	121.1	211.19	-601.17	85.645	148.8	-544.39	1598	345.7	-633.43	1288.5	346.37
161	0.66667	-336.23	1288	277.94	-425.68	1523.5	483.18	-487.53	1566.3	164.92	-414.2	1858.7	337.59	-368.62	1030.3	427.29	-392.59	1032.8	163.04	-614.66	1075.8	358.67	-624.52	1071.8	256.12	-438.57	979.86	514.86	-503.03	979.63	94.298	-446.34	1126.9	505.05	-509.39	1120.3	104.45	-634.7	1038.1	307.37	-408.63	669.92	478.68	-331.37	611.72	440.66	-394.87	585.16	451.86	-342.37	698.69	467.52	-365.4	527.19	440.83	-373.75	535.02	298.97	-430.72	370.41	460.38	-379.77	285.54	410.64	-440.71	300.94	447.67	-372.57	356.32	430.62	-463.05	103.43	403.02	-433.28	110.4	309.44	-536.07	75.43	343.97	-520.17	46.45	315.04	-525.05	45.135	379.62	-334.38	35.968	437.65	-302.54	40.214	312.65	-239.15	57.267	367.69	-457.98	693.66	102.3	-363.46	643.72	75.886	-425.13	609.14	111.33	-403.96	730.16	70.905	-371.92	544.49	81.968	-311.77	536.43	223.66	-490.84	488.52	81.647	-509.96	380.34	98.19	-545.32	433.06	88.813	-455.37	434.31	86.522	-704.28	295.08	132.17	-664.15	275.71	222.59	-766.54	322.89	192.67	-772.93	297.15	226.2	-786.52	301.69	165.9	-669.14	141.83	97.97	-625.49	120.28	211.68	-584.16	85.555	149.46	-539.08	1598.9	346.05	-628.15	1289.5	346.92
